<!-- CS559 Spring 2023 Example Solution Written by CS559 course staff -->

<!-- here is a big, empty SVG! make it into something interesting! -->
<svg xmlns="http://www.w3.org/2000/svg" xmlns:xlink="http://www.w3.org/1999/xlink" height="600px" width="600px">
    <!-- you can delete this big rectangle - it's just a placeholder -->
    <rect x="0" y="0" width="600" height="600" fill="#000030" />

    <def>
        <!-- snowflake consists of one circle at the center and 6 branches rotated 60 degrees from each other -->
        <g id="snowflake">
            <circle cx="0" cy="0" r="20"/>
            <use href="#snowflakeBranch" />
            <use href="#snowflakeBranch" transform="rotate(60)" />
            <use href="#snowflakeBranch" transform="rotate(120)" />
            <use href="#snowflakeBranch" transform="rotate(180)" />
            <use href="#snowflakeBranch" transform="rotate(240)" />
            <use href="#snowflakeBranch" transform="rotate(300)" />
        </g> 

        <!-- primary branch has a large design and consists of 3 smaller sub-branches 50 degrees apart at the end of branch -->
        <g id="snowflakeBranch">
            <rect x="-5" y="0" width="10" height="45" />
            <rect x="-35" y="45" width="70" height="15" />
            <polygon id="miniBranch" points="0,0 10,20 0,40 15,40 25,20 15,0" transform="translate(0,60)" />
            <use href="#miniBranch" transform="scale(-1 1)" />
            <rect x="-15" y="100" width="30" height="15" />

            <use href="#subBranch1" transform="translate(0,110)" />
            <use href="#subBranch1" transform="translate(0,110) rotate(-50)" />
            <use href="#subBranch1" transform="translate(0,110) rotate(50)" />
        </g>

        <!-- smaller sub-branches has a smaller design and contain 2 more even smaller sub-sub-branches also 50 degree apart at the end of branch -->
        <g id="subBranch1">
            <rect id="miniBranch2" x="-3" y="-3" width="6" height="55" transform="translate(8,0) rotate(6)" />
            <use href="#miniBranch2" transform="scale(-1 1)" />

            <use href="#subBranch2" transform="translate(0,40) rotate(-25)" />
            <use href="#subBranch2" transform="translate(0,40) rotate(25)" />
        </g>

        <!-- smallest sub-branch is a point -->
        <g id="subBranch2">
            <polygon points="3,0 5,20 0,50 -5,20 -3,0" />
        </g>    
    </def>
 
    <!-- creates three snowflakes of varying size, rotation, and color -->
    <use href="#snowflake" transform="translate(110,100) scale(0.4) rotate(22)" fill="#CFDFFF" stroke="#CFDFFF"/>
    <use href="#snowflake" transform="translate(450,150) scale(0.7) rotate(54)" fill="#DFEFFF" stroke="#DFEFFF"/>
    <use href="#snowflake" transform="translate(210,400) scale(1) rotate(41)" fill="#FFFFFF" stroke="#FFFFFF"/>
</svg>